<svg width="569" height="147" viewBox="0 0 569 147" fill="none" xmlns="http://www.w3.org/2000/svg">
<path d="M25.512 53.008C17.4 53.008 11.208 50.752 6.936 46.24C2.712 41.728 0.6 35.32 0.6 27.016C0.6 22.888 1.248 19.216 2.544 16C3.84 12.736 5.616 10 7.872 7.792C10.128 5.536 12.816 3.832 15.936 2.68C19.056 1.528 22.44 0.951996 26.088 0.951996C28.2 0.951996 30.12 1.12 31.848 1.456C33.576 1.744 35.088 2.104 36.384 2.536C37.68 2.92 38.76 3.328 39.624 3.76C40.488 4.192 41.112 4.528 41.496 4.768L38.256 13.84C36.72 13.024 34.92 12.328 32.856 11.752C30.84 11.176 28.536 10.888 25.944 10.888C24.216 10.888 22.512 11.176 20.832 11.752C19.2 12.328 17.736 13.264 16.44 14.56C15.192 15.808 14.184 17.44 13.416 19.456C12.648 21.472 12.264 23.92 12.264 26.8C12.264 29.104 12.504 31.264 12.984 33.28C13.512 35.248 14.328 36.952 15.432 38.392C16.584 39.832 18.072 40.984 19.896 41.848C21.72 42.664 23.928 43.072 26.52 43.072C28.152 43.072 29.616 42.976 30.912 42.784C32.208 42.592 33.36 42.376 34.368 42.136C35.376 41.848 36.264 41.536 37.032 41.2C37.8 40.864 38.496 40.552 39.12 40.264L42.216 49.264C40.632 50.224 38.4 51.088 35.52 51.856C32.64 52.624 29.304 53.008 25.512 53.008ZM65.0635 1.528C72.5515 1.528 78.2875 2.872 82.2715 5.56C86.2555 8.2 88.2475 12.328 88.2475 17.944C88.2475 21.448 87.4315 24.304 85.7995 26.512C84.2155 28.672 81.9115 30.376 78.8875 31.624C79.8955 32.872 80.9515 34.312 82.0555 35.944C83.1595 37.528 84.2395 39.208 85.2955 40.984C86.3995 42.712 87.4555 44.536 88.4635 46.456C89.4715 48.328 90.4075 50.176 91.2715 52H78.6715C77.7595 50.368 76.8235 48.712 75.8635 47.032C74.9515 45.352 73.9915 43.72 72.9835 42.136C72.0235 40.552 71.0635 39.064 70.1035 37.672C69.1435 36.232 68.1835 34.936 67.2235 33.784H61.6795V52H50.4475V2.824C52.8955 2.344 55.4155 2.008 58.0075 1.816C60.6475 1.624 62.9995 1.528 65.0635 1.528ZM65.7115 11.104C64.8955 11.104 64.1515 11.128 63.4795 11.176C62.8555 11.224 62.2555 11.272 61.6795 11.32V24.856H64.8475C69.0715 24.856 72.0955 24.328 73.9195 23.272C75.7435 22.216 76.6555 20.416 76.6555 17.872C76.6555 15.424 75.7195 13.696 73.8475 12.688C72.0235 11.632 69.3115 11.104 65.7115 11.104ZM99.4709 52V2.104H133.167V11.536H110.703V21.328H130.647V30.544H110.703V42.568H134.823V52H99.4709ZM177.543 52C177.015 50.272 176.415 48.496 175.743 46.672C175.119 44.848 174.495 43.024 173.871 41.2H154.431C153.807 43.024 153.159 44.848 152.487 46.672C151.863 48.496 151.287 50.272 150.759 52H139.095C140.967 46.624 142.743 41.656 144.423 37.096C146.103 32.536 147.735 28.24 149.319 24.208C150.951 20.176 152.535 16.36 154.071 12.76C155.655 9.112 157.287 5.56 158.967 2.104H169.695C171.327 5.56 172.935 9.112 174.519 12.76C176.103 16.36 177.687 20.176 179.271 24.208C180.903 28.24 182.559 32.536 184.239 37.096C185.919 41.656 187.695 46.624 189.567 52H177.543ZM164.079 13.408C163.839 14.128 163.479 15.112 162.999 16.36C162.519 17.608 161.967 19.048 161.343 20.68C160.719 22.312 160.023 24.112 159.255 26.08C158.535 28.048 157.791 30.112 157.023 32.272H171.207C170.439 30.112 169.695 28.048 168.975 26.08C168.255 24.112 167.559 22.312 166.887 20.68C166.263 19.048 165.711 17.608 165.231 16.36C164.751 15.112 164.367 14.128 164.079 13.408ZM228.127 2.104V11.68H213.079V52H201.847V11.68H186.799V2.104H228.127ZM236.346 52V2.104H270.042V11.536H247.578V21.328H267.522V30.544H247.578V42.568H271.698V52H236.346ZM25.512 147.008C17.4 147.008 11.208 144.752 6.936 140.24C2.712 135.728 0.6 129.32 0.6 121.016C0.6 116.888 1.248 113.216 2.544 110C3.84 106.736 5.616 104 7.872 101.792C10.128 99.536 12.816 97.832 15.936 96.68C19.056 95.528 22.44 94.952 26.088 94.952C28.2 94.952 30.12 95.12 31.848 95.456C33.576 95.744 35.088 96.104 36.384 96.536C37.68 96.92 38.76 97.328 39.624 97.76C40.488 98.192 41.112 98.528 41.496 98.768L38.256 107.84C36.72 107.024 34.92 106.328 32.856 105.752C30.84 105.176 28.536 104.888 25.944 104.888C24.216 104.888 22.512 105.176 20.832 105.752C19.2 106.328 17.736 107.264 16.44 108.56C15.192 109.808 14.184 111.44 13.416 113.456C12.648 115.472 12.264 117.92 12.264 120.8C12.264 123.104 12.504 125.264 12.984 127.28C13.512 129.248 14.328 130.952 15.432 132.392C16.584 133.832 18.072 134.984 19.896 135.848C21.72 136.664 23.928 137.072 26.52 137.072C28.152 137.072 29.616 136.976 30.912 136.784C32.208 136.592 33.36 136.376 34.368 136.136C35.376 135.848 36.264 135.536 37.032 135.2C37.8 134.864 38.496 134.552 39.12 134.264L42.216 143.264C40.632 144.224 38.4 145.088 35.52 145.856C32.64 146.624 29.304 147.008 25.512 147.008ZM58.0514 121.016C58.0514 123.464 58.3394 125.672 58.9154 127.64C59.5394 129.608 60.4034 131.312 61.5074 132.752C62.6594 134.144 64.0514 135.224 65.6834 135.992C67.3154 136.76 69.1874 137.144 71.2994 137.144C73.3634 137.144 75.2114 136.76 76.8434 135.992C78.5234 135.224 79.9154 134.144 81.0194 132.752C82.1714 131.312 83.0354 129.608 83.6114 127.64C84.2354 125.672 84.5474 123.464 84.5474 121.016C84.5474 118.568 84.2354 116.36 83.6114 114.392C83.0354 112.376 82.1714 110.672 81.0194 109.28C79.9154 107.84 78.5234 106.736 76.8434 105.968C75.2114 105.2 73.3634 104.816 71.2994 104.816C69.1874 104.816 67.3154 105.224 65.6834 106.04C64.0514 106.808 62.6594 107.912 61.5074 109.352C60.4034 110.744 59.5394 112.448 58.9154 114.464C58.3394 116.432 58.0514 118.616 58.0514 121.016ZM96.1394 121.016C96.1394 125.288 95.4914 129.056 94.1954 132.32C92.9474 135.536 91.2194 138.248 89.0114 140.456C86.8034 142.616 84.1634 144.248 81.0914 145.352C78.0674 146.456 74.8034 147.008 71.2994 147.008C67.8914 147.008 64.6754 146.456 61.6514 145.352C58.6274 144.248 55.9874 142.616 53.7314 140.456C51.4754 138.248 49.6994 135.536 48.4034 132.32C47.1074 129.056 46.4594 125.288 46.4594 121.016C46.4594 116.744 47.1314 113 48.4754 109.784C49.8194 106.52 51.6194 103.784 53.8754 101.576C56.1794 99.368 58.8194 97.712 61.7954 96.608C64.8194 95.504 67.9874 94.952 71.2994 94.952C74.7074 94.952 77.9234 95.504 80.9474 96.608C83.9714 97.712 86.6114 99.368 88.8674 101.576C91.1234 103.784 92.8994 106.52 94.1954 109.784C95.4914 113 96.1394 116.744 96.1394 121.016ZM139.982 146C136.766 140.288 133.286 134.648 129.542 129.08C125.798 123.512 121.814 118.256 117.59 113.312V146H106.502V96.104H115.646C117.23 97.688 118.982 99.632 120.902 101.936C122.822 104.24 124.766 106.712 126.734 109.352C128.75 111.944 130.742 114.656 132.71 117.488C134.678 120.272 136.526 122.96 138.254 125.552V96.104H149.414V146H139.982ZM175.532 137.432C177.116 137.432 178.412 137.312 179.42 137.072C180.476 136.784 181.316 136.424 181.94 135.992C182.564 135.512 182.996 134.96 183.236 134.336C183.476 133.712 183.596 133.016 183.596 132.248C183.596 130.616 182.828 129.272 181.292 128.216C179.756 127.112 177.116 125.936 173.372 124.688C171.74 124.112 170.108 123.464 168.476 122.744C166.844 121.976 165.38 121.04 164.084 119.936C162.788 118.784 161.732 117.416 160.916 115.832C160.1 114.2 159.692 112.232 159.692 109.928C159.692 107.624 160.124 105.56 160.988 103.736C161.852 101.864 163.076 100.28 164.66 98.984C166.244 97.688 168.164 96.704 170.42 96.032C172.676 95.312 175.22 94.952 178.052 94.952C181.412 94.952 184.316 95.312 186.764 96.032C189.212 96.752 191.228 97.544 192.812 98.408L189.572 107.264C188.18 106.544 186.62 105.92 184.892 105.392C183.212 104.816 181.172 104.528 178.772 104.528C176.084 104.528 174.14 104.912 172.94 105.68C171.788 106.4 171.212 107.528 171.212 109.064C171.212 109.976 171.428 110.744 171.86 111.368C172.292 111.992 172.892 112.568 173.66 113.096C174.476 113.576 175.388 114.032 176.396 114.464C177.452 114.848 178.604 115.256 179.852 115.688C182.444 116.648 184.7 117.608 186.62 118.568C188.54 119.48 190.124 120.56 191.372 121.808C192.668 123.056 193.628 124.52 194.252 126.2C194.876 127.88 195.188 129.92 195.188 132.32C195.188 136.976 193.556 140.6 190.292 143.192C187.028 145.736 182.108 147.008 175.532 147.008C173.324 147.008 171.332 146.864 169.556 146.576C167.78 146.336 166.196 146.024 164.804 145.64C163.46 145.256 162.284 144.848 161.276 144.416C160.316 143.984 159.5 143.576 158.828 143.192L161.996 134.264C163.484 135.08 165.308 135.824 167.468 136.496C169.676 137.12 172.364 137.432 175.532 137.432ZM240.432 96.104V105.68H225.384V146H214.152V105.68H199.104V96.104H240.432ZM263.267 95.528C270.755 95.528 276.491 96.872 280.475 99.56C284.459 102.2 286.451 106.328 286.451 111.944C286.451 115.448 285.635 118.304 284.003 120.512C282.419 122.672 280.115 124.376 277.091 125.624C278.099 126.872 279.155 128.312 280.259 129.944C281.363 131.528 282.443 133.208 283.499 134.984C284.603 136.712 285.659 138.536 286.667 140.456C287.675 142.328 288.611 144.176 289.475 146H276.875C275.963 144.368 275.027 142.712 274.067 141.032C273.155 139.352 272.195 137.72 271.187 136.136C270.227 134.552 269.267 133.064 268.307 131.672C267.347 130.232 266.387 128.936 265.427 127.784H259.883V146H248.651V96.824C251.099 96.344 253.619 96.008 256.211 95.816C258.851 95.624 261.203 95.528 263.267 95.528ZM263.915 105.104C263.099 105.104 262.355 105.128 261.683 105.176C261.059 105.224 260.459 105.272 259.883 105.32V118.856H263.051C267.275 118.856 270.299 118.328 272.123 117.272C273.947 116.216 274.859 114.416 274.859 111.872C274.859 109.424 273.923 107.696 272.051 106.688C270.227 105.632 267.515 105.104 263.915 105.104ZM316.624 147.008C313.12 147.008 310.096 146.528 307.552 145.568C305.008 144.56 302.896 143.192 301.216 141.464C299.584 139.688 298.36 137.6 297.544 135.2C296.776 132.752 296.392 130.064 296.392 127.136V96.104H307.624V126.2C307.624 128.216 307.84 129.944 308.272 131.384C308.752 132.776 309.376 133.928 310.144 134.84C310.96 135.704 311.92 136.328 313.024 136.712C314.176 137.096 315.424 137.288 316.768 137.288C319.504 137.288 321.712 136.448 323.392 134.768C325.12 133.088 325.984 130.232 325.984 126.2V96.104H337.216V127.136C337.216 130.064 336.808 132.752 335.992 135.2C335.176 137.648 333.928 139.76 332.248 141.536C330.568 143.264 328.432 144.608 325.84 145.568C323.248 146.528 320.176 147.008 316.624 147.008ZM371.77 147.008C363.658 147.008 357.466 144.752 353.194 140.24C348.97 135.728 346.858 129.32 346.858 121.016C346.858 116.888 347.506 113.216 348.802 110C350.098 106.736 351.874 104 354.13 101.792C356.386 99.536 359.074 97.832 362.194 96.68C365.314 95.528 368.698 94.952 372.346 94.952C374.458 94.952 376.378 95.12 378.106 95.456C379.834 95.744 381.346 96.104 382.642 96.536C383.938 96.92 385.018 97.328 385.882 97.76C386.746 98.192 387.37 98.528 387.754 98.768L384.514 107.84C382.978 107.024 381.178 106.328 379.114 105.752C377.098 105.176 374.794 104.888 372.202 104.888C370.474 104.888 368.77 105.176 367.09 105.752C365.458 106.328 363.994 107.264 362.698 108.56C361.45 109.808 360.442 111.44 359.674 113.456C358.906 115.472 358.522 117.92 358.522 120.8C358.522 123.104 358.762 125.264 359.242 127.28C359.77 129.248 360.586 130.952 361.69 132.392C362.842 133.832 364.33 134.984 366.154 135.848C367.978 136.664 370.186 137.072 372.778 137.072C374.41 137.072 375.874 136.976 377.17 136.784C378.466 136.592 379.618 136.376 380.626 136.136C381.634 135.848 382.522 135.536 383.29 135.2C384.058 134.864 384.754 134.552 385.378 134.264L388.474 143.264C386.89 144.224 384.658 145.088 381.778 145.856C378.898 146.624 375.562 147.008 371.77 147.008ZM435.26 96.104V105.68H420.212V146H408.98V105.68H393.932V96.104H435.26ZM443.479 96.104H454.711V146H443.479V96.104ZM476.692 121.016C476.692 123.464 476.98 125.672 477.556 127.64C478.18 129.608 479.044 131.312 480.148 132.752C481.3 134.144 482.692 135.224 484.324 135.992C485.956 136.76 487.828 137.144 489.94 137.144C492.004 137.144 493.852 136.76 495.484 135.992C497.164 135.224 498.556 134.144 499.66 132.752C500.812 131.312 501.676 129.608 502.252 127.64C502.876 125.672 503.188 123.464 503.188 121.016C503.188 118.568 502.876 116.36 502.252 114.392C501.676 112.376 500.812 110.672 499.66 109.28C498.556 107.84 497.164 106.736 495.484 105.968C493.852 105.2 492.004 104.816 489.94 104.816C487.828 104.816 485.956 105.224 484.324 106.04C482.692 106.808 481.3 107.912 480.148 109.352C479.044 110.744 478.18 112.448 477.556 114.464C476.98 116.432 476.692 118.616 476.692 121.016ZM514.78 121.016C514.78 125.288 514.132 129.056 512.836 132.32C511.588 135.536 509.86 138.248 507.652 140.456C505.444 142.616 502.804 144.248 499.732 145.352C496.708 146.456 493.444 147.008 489.94 147.008C486.532 147.008 483.316 146.456 480.292 145.352C477.268 144.248 474.628 142.616 472.372 140.456C470.116 138.248 468.34 135.536 467.044 132.32C465.748 129.056 465.1 125.288 465.1 121.016C465.1 116.744 465.772 113 467.116 109.784C468.46 106.52 470.26 103.784 472.516 101.576C474.82 99.368 477.46 97.712 480.436 96.608C483.46 95.504 486.628 94.952 489.94 94.952C493.348 94.952 496.564 95.504 499.588 96.608C502.612 97.712 505.252 99.368 507.508 101.576C509.764 103.784 511.54 106.52 512.836 109.784C514.132 113 514.78 116.744 514.78 121.016ZM558.623 146C555.407 140.288 551.927 134.648 548.183 129.08C544.439 123.512 540.455 118.256 536.231 113.312V146H525.143V96.104H534.287C535.871 97.688 537.623 99.632 539.543 101.936C541.463 104.24 543.407 106.712 545.375 109.352C547.391 111.944 549.383 114.656 551.351 117.488C553.319 120.272 555.167 122.96 556.895 125.552V96.104H568.055V146H558.623Z" fill="white"/>
<path d="M309.666 52C308.274 49.216 306.738 46.408 305.058 43.576C303.426 40.696 301.53 37.768 299.37 34.792C298.698 35.656 297.834 36.856 296.778 38.392C295.77 39.928 294.738 41.56 293.682 43.288C292.674 45.016 291.714 46.672 290.802 48.256C289.89 49.84 289.218 51.088 288.786 52H275.97C278.082 48.112 280.53 44.032 283.314 39.76C286.146 35.488 289.29 30.952 292.746 26.152L276.69 2.104H290.298L300.018 17.656L309.522 2.104H322.338L306.498 26.296C310.53 31.528 313.914 36.376 316.65 40.84C319.386 45.256 321.546 48.976 323.13 52H309.666Z" fill="#FF5A30"/>
</svg>
