<svg width="724" height="54" viewBox="0 0 724 54" fill="none" xmlns="http://www.w3.org/2000/svg">
<g clip-path="url(#clip0_2111_1750)">
<g clip-path="url(#clip1_2111_1750)">
<path d="M14.952 21.256C14.952 24.5227 14.3267 27.0333 13.076 28.788C11.844 30.524 10.136 31.392 7.952 31.392C5.768 31.392 4.05067 30.524 2.8 28.788C1.568 27.0333 0.952 24.5227 0.952 21.256C0.952 19.632 1.11067 18.1947 1.428 16.944C1.764 15.6933 2.24 14.6387 2.856 13.78C3.472 12.9213 4.20933 12.268 5.068 11.82C5.92667 11.372 6.888 11.148 7.952 11.148C10.136 11.148 11.844 12.0253 13.076 13.78C14.3267 15.516 14.952 18.008 14.952 21.256ZM10.696 21.256C10.696 20.2853 10.6493 19.408 10.556 18.624C10.4627 17.8213 10.3133 17.1307 10.108 16.552C9.90267 15.9733 9.62267 15.5253 9.268 15.208C8.91333 14.8907 8.47467 14.732 7.952 14.732C7.42933 14.732 6.99067 14.8907 6.636 15.208C6.3 15.5253 6.02 15.9733 5.796 16.552C5.59067 17.1307 5.44133 17.8213 5.348 18.624C5.25467 19.408 5.208 20.2853 5.208 21.256C5.208 22.2267 5.25467 23.1133 5.348 23.916C5.44133 24.7187 5.59067 25.4093 5.796 25.988C6.02 26.5667 6.3 27.0147 6.636 27.332C6.99067 27.6493 7.42933 27.808 7.952 27.808C8.47467 27.808 8.91333 27.6493 9.268 27.332C9.62267 27.0147 9.90267 26.5667 10.108 25.988C10.3133 25.4093 10.4627 24.7187 10.556 23.916C10.6493 23.1133 10.696 22.2267 10.696 21.256ZM17.8741 15.628C18.4154 15.404 18.9754 15.152 19.5541 14.872C20.1514 14.5733 20.7301 14.256 21.2901 13.92C21.8501 13.5653 22.3821 13.2013 22.8861 12.828C23.4087 12.436 23.8754 12.0253 24.2861 11.596H27.1981V31H23.0261V17.028C22.4661 17.4013 21.8407 17.7467 21.1501 18.064C20.4594 18.3627 19.7874 18.624 19.1341 18.848L17.8741 15.628Z" fill="white"/>
<line x1="1" y1="53" x2="177" y2="53" stroke="white" stroke-width="2" stroke-linecap="round"/>
</g>
<g clip-path="url(#clip2_2111_1750)">
<path opacity="0.6" d="M196.952 21.256C196.952 24.5227 196.327 27.0333 195.076 28.788C193.844 30.524 192.136 31.392 189.952 31.392C187.768 31.392 186.051 30.524 184.8 28.788C183.568 27.0333 182.952 24.5227 182.952 21.256C182.952 19.632 183.111 18.1947 183.428 16.944C183.764 15.6933 184.24 14.6387 184.856 13.78C185.472 12.9213 186.209 12.268 187.068 11.82C187.927 11.372 188.888 11.148 189.952 11.148C192.136 11.148 193.844 12.0253 195.076 13.78C196.327 15.516 196.952 18.008 196.952 21.256ZM192.696 21.256C192.696 20.2853 192.649 19.408 192.556 18.624C192.463 17.8213 192.313 17.1307 192.108 16.552C191.903 15.9733 191.623 15.5253 191.268 15.208C190.913 14.8907 190.475 14.732 189.952 14.732C189.429 14.732 188.991 14.8907 188.636 15.208C188.3 15.5253 188.02 15.9733 187.796 16.552C187.591 17.1307 187.441 17.8213 187.348 18.624C187.255 19.408 187.208 20.2853 187.208 21.256C187.208 22.2267 187.255 23.1133 187.348 23.916C187.441 24.7187 187.591 25.4093 187.796 25.988C188.02 26.5667 188.3 27.0147 188.636 27.332C188.991 27.6493 189.429 27.808 189.952 27.808C190.475 27.808 190.913 27.6493 191.268 27.332C191.623 27.0147 191.903 26.5667 192.108 25.988C192.313 25.4093 192.463 24.7187 192.556 23.916C192.649 23.1133 192.696 22.2267 192.696 21.256ZM211.802 16.692C211.802 17.4013 211.662 18.0827 211.382 18.736C211.102 19.3893 210.738 20.024 210.29 20.64C209.842 21.2373 209.338 21.816 208.778 22.376C208.218 22.936 207.667 23.468 207.126 23.972C206.846 24.2333 206.538 24.532 206.202 24.868C205.885 25.1853 205.577 25.512 205.278 25.848C204.979 26.184 204.709 26.5013 204.466 26.8C204.242 27.08 204.102 27.3133 204.046 27.5H212.39V31H199.454C199.417 30.7947 199.398 30.5333 199.398 30.216C199.398 29.8987 199.398 29.6747 199.398 29.544C199.398 28.648 199.538 27.8267 199.818 27.08C200.117 26.3333 200.499 25.6427 200.966 25.008C201.433 24.3547 201.955 23.748 202.534 23.188C203.131 22.628 203.719 22.068 204.298 21.508C204.746 21.0787 205.166 20.6773 205.558 20.304C205.95 19.912 206.295 19.5387 206.594 19.184C206.893 18.8107 207.126 18.4467 207.294 18.092C207.462 17.7187 207.546 17.3453 207.546 16.972C207.546 16.1507 207.313 15.572 206.846 15.236C206.379 14.9 205.801 14.732 205.11 14.732C204.606 14.732 204.13 14.816 203.682 14.984C203.253 15.1333 202.851 15.32 202.478 15.544C202.123 15.7493 201.815 15.964 201.554 16.188C201.293 16.3933 201.097 16.5613 200.966 16.692L198.894 13.78C199.715 13.0147 200.667 12.3893 201.75 11.904C202.851 11.4 204.027 11.148 205.278 11.148C206.417 11.148 207.397 11.2787 208.218 11.54C209.039 11.8013 209.711 12.1747 210.234 12.66C210.775 13.1267 211.167 13.7053 211.41 14.396C211.671 15.068 211.802 15.8333 211.802 16.692Z" fill="white"/>
<line opacity="0.3" x1="183" y1="53" x2="359" y2="53" stroke="white" stroke-width="2" stroke-linecap="round"/>
</g>
<g clip-path="url(#clip3_2111_1750)">
<path opacity="0.6" d="M378.952 21.256C378.952 24.5227 378.327 27.0333 377.076 28.788C375.844 30.524 374.136 31.392 371.952 31.392C369.768 31.392 368.051 30.524 366.8 28.788C365.568 27.0333 364.952 24.5227 364.952 21.256C364.952 19.632 365.111 18.1947 365.428 16.944C365.764 15.6933 366.24 14.6387 366.856 13.78C367.472 12.9213 368.209 12.268 369.068 11.82C369.927 11.372 370.888 11.148 371.952 11.148C374.136 11.148 375.844 12.0253 377.076 13.78C378.327 15.516 378.952 18.008 378.952 21.256ZM374.696 21.256C374.696 20.2853 374.649 19.408 374.556 18.624C374.463 17.8213 374.313 17.1307 374.108 16.552C373.903 15.9733 373.623 15.5253 373.268 15.208C372.913 14.8907 372.475 14.732 371.952 14.732C371.429 14.732 370.991 14.8907 370.636 15.208C370.3 15.5253 370.02 15.9733 369.796 16.552C369.591 17.1307 369.441 17.8213 369.348 18.624C369.255 19.408 369.208 20.2853 369.208 21.256C369.208 22.2267 369.255 23.1133 369.348 23.916C369.441 24.7187 369.591 25.4093 369.796 25.988C370.02 26.5667 370.3 27.0147 370.636 27.332C370.991 27.6493 371.429 27.808 371.952 27.808C372.475 27.808 372.913 27.6493 373.268 27.332C373.623 27.0147 373.903 26.5667 374.108 25.988C374.313 25.4093 374.463 24.7187 374.556 23.916C374.649 23.1133 374.696 22.2267 374.696 21.256ZM386.298 31.42C385.794 31.42 385.262 31.3827 384.702 31.308C384.142 31.252 383.601 31.168 383.078 31.056C382.555 30.944 382.079 30.8227 381.65 30.692C381.221 30.5613 380.885 30.44 380.642 30.328L381.454 26.856C381.939 27.0613 382.555 27.2853 383.302 27.528C384.067 27.752 385.01 27.864 386.13 27.864C387.418 27.864 388.361 27.6213 388.958 27.136C389.555 26.6507 389.854 25.9973 389.854 25.176C389.854 24.672 389.742 24.252 389.518 23.916C389.313 23.5613 389.023 23.2813 388.65 23.076C388.277 22.852 387.829 22.7027 387.306 22.628C386.802 22.5347 386.261 22.488 385.682 22.488H384.058V19.128H385.906C386.317 19.128 386.709 19.0907 387.082 19.016C387.474 18.9413 387.819 18.82 388.118 18.652C388.417 18.4653 388.65 18.2227 388.818 17.924C389.005 17.6067 389.098 17.2147 389.098 16.748C389.098 16.3933 389.023 16.0853 388.874 15.824C388.725 15.5627 388.529 15.348 388.286 15.18C388.062 15.012 387.791 14.8907 387.474 14.816C387.175 14.7227 386.867 14.676 386.55 14.676C385.747 14.676 385.001 14.7973 384.31 15.04C383.638 15.2827 383.022 15.5813 382.462 15.936L380.978 12.884C381.277 12.6973 381.622 12.5013 382.014 12.296C382.425 12.0907 382.873 11.904 383.358 11.736C383.843 11.568 384.357 11.428 384.898 11.316C385.458 11.204 386.046 11.148 386.662 11.148C387.801 11.148 388.781 11.288 389.602 11.568C390.442 11.8293 391.133 12.212 391.674 12.716C392.215 13.2013 392.617 13.78 392.878 14.452C393.139 15.1053 393.27 15.824 393.27 16.608C393.27 17.3733 393.055 18.12 392.626 18.848C392.197 19.5573 391.618 20.0987 390.89 20.472C391.898 20.8827 392.673 21.4987 393.214 22.32C393.774 23.1227 394.054 24.0933 394.054 25.232C394.054 26.128 393.905 26.9587 393.606 27.724C393.307 28.4707 392.841 29.124 392.206 29.684C391.571 30.2253 390.759 30.6547 389.77 30.972C388.799 31.2707 387.642 31.42 386.298 31.42Z" fill="white"/>
<line opacity="0.3" x1="365" y1="53" x2="541" y2="53" stroke="white" stroke-width="2" stroke-linecap="round"/>
</g>
<g clip-path="url(#clip4_2111_1750)">
<path opacity="0.6" d="M560.952 21.256C560.952 24.5227 560.327 27.0333 559.076 28.788C557.844 30.524 556.136 31.392 553.952 31.392C551.768 31.392 550.051 30.524 548.8 28.788C547.568 27.0333 546.952 24.5227 546.952 21.256C546.952 19.632 547.111 18.1947 547.428 16.944C547.764 15.6933 548.24 14.6387 548.856 13.78C549.472 12.9213 550.209 12.268 551.068 11.82C551.927 11.372 552.888 11.148 553.952 11.148C556.136 11.148 557.844 12.0253 559.076 13.78C560.327 15.516 560.952 18.008 560.952 21.256ZM556.696 21.256C556.696 20.2853 556.649 19.408 556.556 18.624C556.463 17.8213 556.313 17.1307 556.108 16.552C555.903 15.9733 555.623 15.5253 555.268 15.208C554.913 14.8907 554.475 14.732 553.952 14.732C553.429 14.732 552.991 14.8907 552.636 15.208C552.3 15.5253 552.02 15.9733 551.796 16.552C551.591 17.1307 551.441 17.8213 551.348 18.624C551.255 19.408 551.208 20.2853 551.208 21.256C551.208 22.2267 551.255 23.1133 551.348 23.916C551.441 24.7187 551.591 25.4093 551.796 25.988C552.02 26.5667 552.3 27.0147 552.636 27.332C552.991 27.6493 553.429 27.808 553.952 27.808C554.475 27.808 554.913 27.6493 555.268 27.332C555.623 27.0147 555.903 26.5667 556.108 25.988C556.313 25.4093 556.463 24.7187 556.556 23.916C556.649 23.1133 556.696 22.2267 556.696 21.256ZM570.846 16.692C570.118 17.644 569.343 18.68 568.522 19.8C567.701 20.92 567.01 22.068 566.45 23.244H570.846V16.692ZM574.934 11.596V23.244H577.006V26.66H574.934V31H570.846V26.66H562.474V23.608C562.885 22.7867 563.398 21.8627 564.014 20.836C564.63 19.7907 565.311 18.7267 566.058 17.644C566.823 16.5427 567.626 15.4693 568.466 14.424C569.306 13.3787 570.146 12.436 570.986 11.596H574.934Z" fill="white"/>
<line opacity="0.3" x1="547" y1="53" x2="723" y2="53" stroke="white" stroke-width="2" stroke-linecap="round"/>
</g>
</g>
<defs>
<clipPath id="clip0_2111_1750">
<rect width="724" height="54" fill="white"/>
</clipPath>
<clipPath id="clip1_2111_1750">
<rect width="178" height="54" fill="white"/>
</clipPath>
<clipPath id="clip2_2111_1750">
<rect width="178" height="54" fill="white" transform="translate(182)"/>
</clipPath>
<clipPath id="clip3_2111_1750">
<rect width="178" height="54" fill="white" transform="translate(364)"/>
</clipPath>
<clipPath id="clip4_2111_1750">
<rect width="178" height="54" fill="white" transform="translate(546)"/>
</clipPath>
</defs>
</svg>
